<svg xmlns="http://www.w3.org/2000/svg" width="16" height="16" viewBox="0 0 16 16">
    <g fill="none" fill-rule="evenodd">
        <g fill="#F3F4F6" fill-rule="nonzero">
            <g>
                <path d="M6.005 0L5.88.007l-.128.021-.126.035c-.445.151-.76.544-.809 1.005L4.76 2.349.55 2.3.5 3.924l1.343.045.992 11.31.019.114.04.12c.111.264.346.444.62.48l.104.008h8.74l.114-.008.12-.029.113-.046c.218-.107.372-.302.423-.534l.016-.101 1.042-11.36 1.264.051.05-1.623-4.312-.051.002-1.101-.006-.126-.022-.132c-.114-.507-.533-.879-1.037-.933L9.997 0H6.005zm6.504 3.922l.05.055-.963 10.45-7.264-.046L3.47 3.922h9.039zM9.026 5.345l-.327 7.6 1.618.11.33-7.65-1.621-.06zm-2.055-.002l-1.57.01.229 7.653 1.621-.01-.28-7.653zm2.598-3.77l.05.05-.05.725-3.19-.05.05-.726h3.14z" transform="translate(-23 -40) translate(23 40)"/>
            </g>
        </g>
    </g>
</svg>
